# AST/ASF file generated using VICON BodyLanguage
# -----------------------------------------------
:version 1.10
:name VICON
:units
  mass 1.0
  length 0.45
  angle deg
:documentation
   .ast/.asf automatically generated from VICON data using
   VICON BodyBuilder and BodyLanguage model FoxedUp or BRILLIANT.MOD
:root
   order TX TY TZ RX RY RZ
   axis XYZ
   position 0 0 0  
   orientation 0 0 0 
:bonedata
  begin
     id 1 
     name lhipjoint
     direction 0.700308 -0.549349 0.455834 
     length 2.59063 
     axis 0 0 0  XYZ
  end
  begin
     id 2 
     name lfemur
     direction 0.34202 -0.939693 0  
     length 6.31066  
     axis 0 0 20  XYZ
    dof rx ry rz
    limits (-160.0 20.0)
           (-70.0 70.0)
           (-60.0 70.0)
  end
  begin
     id 3 
     name ltibia
     direction 0.34202 -0.939693 0   
     length 7.36093   
     axis 0 0 20   XYZ
    dof rx
    limits (-10.0 170.0)
  end
  begin
     id 4 
     name lfoot
     direction 0.0905332 -0.248738 0.96433   
     length 2.0233   
     axis -90 7.62852e-016 20   XYZ
    dof rx rz
    limits (-45.0 90.0)
           (-70.0 20.0)
  end
  begin
     id 5 
     name ltoes
     direction 1.53573e-011 -4.21855e-011 1   
     length 1.01524   
     axis -90 7.62852e-016 20   XYZ
    dof rx
    limits (-90.0 20.0)
  end
  begin
     id 6 
     name rhipjoint
     direction -0.61416 -0.607328 0.503944   
     length 2.34332  
     axis 0 0 0  XYZ 
  end
  begin
     id 7 
     name rfemur
     direction -0.34202 -0.939693 0   
     length 6.58548   
     axis 0 0 -20   XYZ
    dof rx ry rz
    limits (-160.0 20.0)
           (-70.0 70.0)
           (-70.0 60.0)
  end
  begin
     id 8 
     name rtibia
     direction -0.34202 -0.939693 0   
     length 7.20707   
     axis 0 0 -20   XYZ
    dof rx
    limits (-10.0 170.0)
 end
 begin
     id 9 
     name rfoot
     direction -0.136772 -0.375778 0.916561   
     length 1.92184  
     axis -90 -7.62852e-016 -20   XYZ
    dof rx rz
    limits (-45.0 90.0)
           (-20.0 70.0)
  end
  begin
     id 10 
     name rtoes
     direction -1.53535e-011 -4.21828e-011 1   
     length 0.951089   
     axis -90 -7.62852e-016 -20   XYZ
    dof rx
    limits (-90.0 20.0)
  end
  begin
     id 11 
     name lowerback
     direction -0.0444974 0.988086 -0.147332   
     length 1.9609   
     axis 0 0 0   XYZ
    dof rx ry rz
    limits (-20.0 45.0)
           (-30.0 30.0)
           (-30.0 30.0)
  end
  begin
     id 12 
     name upperback
     direction 0.00613146 0.999513 0.0306081   
     length 1.94944   
     axis 0 0 0   XYZ
    dof rx ry rz
    limits (-20.0 45.0)
           (-30.0 30.0)
           (-30.0 30.0)
  end
  begin
     id 13 
     name thorax
     direction 0.0254621 0.994518 0.101418   
     length 2.0119   
     axis 0 0 0   XYZ
    dof rx ry rz
    limits (-20.0 45.0)
           (-30.0 30.0)
           (-30.0 30.0)
  end
  begin
     id 14 
     name lowerneck
     direction 0.0168698 0.977854 0.208608   
     length 1.6375   
     axis 0 0 0   XYZ
    dof rx ry rz
    limits (-20.0 45.0)
           (-30.0 30.0)
           (-30.0 30.0)
  end
  begin
     id 15 
     name upperneck
     direction -0.0283988 0.989338 -0.142843   
     length 1.6851   
     axis 0 0 0   XYZ
    dof rx ry rz
    limits (-20.0 45.0)
           (-30.0 30.0)
           (-30.0 30.0)
  end
  begin
     id 16
     name head
     direction -0.0129422 0.99741 -0.0707489  
     length 1.69029  
     axis 0 0 0   XYZ
    dof rx ry rz
    limits (-20.0 45.0)
           (-30.0 30.0)
           (-30.0 30.0)
  end
  begin
     id 17 
     name lclavicle
     direction 0.820295 0.564628 -0.0911715  
     length 3.16484  
     axis 0 0 0   XYZ
    dof ry rz
    limits (-20.0 10.0)
           (0.0 20.0)
  end
  begin
     id 18 
     name lhumerus
     direction 1 -4.48969e-011 1.00186e-027   
     length 5.17853   
     axis 180 -30 -90   XYZ
    dof rx ry rz
    limits (-60.0 90.0)
           (-90.0 90.0)
           (-90.0 90.0)
  end
  begin
     id 19
     name lradius
     direction 1 -4.48966e-011 -1.52922e-027   
     length 3.40399   
     axis 180 -30 -90   XYZ
    dof rx
    limits (-10.0 170.0)
  end
  begin
     id 20
     name lwrist
     direction 1 -4.48981e-011 -3.80893e-027   
     length 1.70199   
     axis 1.1049e-015 90 90   XYZ
    dof ry
    limits (-180.0 0.0)
 end
  begin
     id 21 
     name lhand
     direction 1 -4.48957e-011 -7.61786e-027   
     length 0.708964   
     axis 4.86085e-015 90 90   XYZ
    dof rx rz
    limits (-90.0 90.0)
           (-45.0 45.0)
  end
  begin
     id 22 
     name lfingers
     direction 1 -4.48929e-011 -1.52357e-026   
     length 0.571585   
     axis 9.7217e-015 90 90   XYZ
    dof rx
    limits (0.0 90.0)
  end
  begin
     id 23
     name lthumb
     direction 0.707107 -6.34905e-011 0.707107   
     length 0.820685   
     axis -90 45 2.85299e-015   XYZ
    dof rx rz
    limits (-45.0 45.0)
           (-45.0 45.0)
  end
  begin
     id 24 
     name rclavicle
     direction -0.858602 0.463947 -0.218075   
     length 3.35137  
     axis 0 0 0   XYZ 
    dof ry rz
    limits (-10.0 20.0)
           (-20.0 0.0)
  end
  begin
     id 25 
     name rhumerus
     direction -1 -4.48969e-011 -1.98511e-027  
     length 5.42351   
     axis 180 30 90   XYZ
    dof rx ry rz
    limits (-90.0 60.0)
           (-90.0 90.0)
           (-90.0 90.0)
  end
  begin
     id 26 
     name rradius
     direction -1 -4.48961e-011 -2.82624e-027   
     length 3.42066   
     axis 180 30 90   XYZ
    dof rx
    limits (-10.0 170.0)
  end
  begin
     id 27 
     name rwrist
     direction -1 -4.48966e-011 -3.80893e-027   
     length 1.71033   
     axis 1.1049e-015 -90 -90   XYZ
    dof ry
    limits (-180.0 0.0)
  end
  begin
     id 28
     name rhand
     direction -1 -4.48964e-011 -7.61786e-027   
     length 0.743608   
     axis 4.86085e-015 -90 -90   XYZ
    dof rx rz
    limits (-90.0 90.0)
           (-45.0 45.0)
  end
  begin
     id 29
     name rfingers
     direction -1 -4.48961e-011 -1.52357e-026   
     length 0.599516   
     axis 9.7217e-015 -90 -90   XYZ
    dof rx
    limits (0.0 90.0)
  end
  begin
     id 30
     name rthumb
     direction -0.707107 -6.34913e-011 0.707107   
     length 0.860789   
     axis -90 -45 -2.85299e-015   XYZ
    dof rx rz
    limits (-45.0 45.0)
           (-45.0 45.0)
  end
:hierarchy
  begin
    root lhipjoint rhipjoint lowerback
    lhipjoint lfemur
    lfemur ltibia
    ltibia lfoot
    lfoot ltoes
    rhipjoint rfemur
    rfemur rtibia
    rtibia rfoot
    rfoot rtoes
    lowerback upperback
    upperback thorax
    thorax lowerneck lclavicle rclavicle
    lowerneck upperneck
    upperneck head
    lclavicle lhumerus
    lhumerus lradius
    lradius lwrist
    lwrist lhand lthumb
    lhand lfingers
    rclavicle rhumerus
    rhumerus rradius
    rradius rwrist
    rwrist rhand rthumb
    rhand rfingers
  end

#!OML:ASF E:\mmandel\Project 1\Capture day 1\Session 2\Subject.ASF
:FULLY-SPECIFIED
:DEGREES
35
root -4.93401 2.95669 0.230744 134.601 -3.33893 -91.3808
lowerback 34.2407 -1.76091 -3.36055
upperback 7.17218 -4.09741 1.87326
thorax -9.13119 -2.28335 5.3814
lowerneck -18.8194 2.39481 -2.19873
upperneck 24.3877 7.65978 -24.1151
head 12.5016 -0.424758 -7.92857
rclavicle 6.04305e-014 -1.05753e-013
rhumerus 32.1848 53.1595 -89.7979
rradius 51.1434
rwrist -30.062
rhand -35.4866 39.8294
rfingers 7.12502
rthumb -8.6144 10.0252
lclavicle 6.04305e-014 -1.05753e-013
lhumerus 56.0089 -10.7965 44.2063
lradius 28.893
lwrist -32.2107
lhand -2.97116 -4.70251
lfingers 7.12502
lthumb 22.7416 23.9772
rfemur -67.1197 8.55059 28.5069
rtibia 70.1637
rfoot -7.98831 -11.9039
rtoes -30.0472
lfemur 4.84617 -4.87833 -27.8227
ltibia 17.7598
lfoot 15.2925 3.55573
ltoes 4.70455
36
root -4.93321 2.95472 0.230928 134.64 -3.3335 -91.384
lowerback 34.232 -1.77325 -3.32608
upperback 7.1381 -4.09872 1.85116
thorax -9.16874 -2.27982 5.34133
lowerneck -18.8527 2.2814 -2.31778
upperneck 24.5598 7.54619 -23.9379
head 12.5434 -0.477541 -7.86522
rclavicle 2.54444e-014 -2.70347e-014
rhumerus 32.0992 53.1234 -89.8961
rradius 51.1502
rwrist -29.9891
rhand -35.4702 39.6009
rfingers 7.12502
rthumb -8.59859 9.796
lclavicle 2.54444e-014 -2.70347e-014
lhumerus 56.0311 -10.8385 44.2824
lradius 28.8353
lwrist -32.2815
lhand -3.13848 -4.6913
lfingers 7.12502
lthumb 22.5811 24.008
rfemur -67.1646 8.55014 28.4973
rtibia 70.1607
rfoot -7.94769 -11.8724
rtoes -30.0812
lfemur 4.68444 -4.79335 -27.8004
ltibia 17.9739
lfoot 15.1712 3.55979
ltoes 4.73905
37
root -4.93498 2.95623 0.230749 134.613 -3.31911 -91.4072
lowerback 34.2692 -1.75296 -3.38448
upperback 7.12356 -4.09223 1.8657
thorax -9.19523 -2.27433 5.38797
lowerneck -18.9221 2.20737 -2.44935
upperneck 24.7056 7.48738 -23.7385
head 12.5896 -0.506417 -7.78019
rclavicle 7.95139e-015 7.15625e-015
rhumerus 32.0278 53.1564 -89.958
rradius 51.1735
rwrist -30.0505
rhand -35.5372 39.7657
rfingers 7.12502
rthumb -8.66316 9.96348
lclavicle 7.95139e-015 7.15625e-015
lhumerus 56.0056 -10.8226 44.4098
lradius 28.754
lwrist -32.4614
lhand -3.0563 -4.81337
lfingers 7.12502
lthumb 22.6599 23.8763
rfemur -67.1176 8.58592 28.5001
rtibia 70.1673
rfoot -7.97926 -11.8664
rtoes -29.8013
lfemur 4.55619 -4.67061 -27.8013
ltibia 18.2263
lfoot 15.2938 3.57368
ltoes 4.59987
38
root -4.93669 2.95821 0.229528 134.584 -3.38727 -91.4978
lowerback 34.3266 -1.71634 -3.49753
upperback 7.11596 -4.09148 1.82262
thorax -9.22102 -2.27002 5.40467
lowerneck -18.9791 2.05257 -2.6253
upperneck 24.8291 7.31829 -23.4219
head 12.5968 -0.565218 -7.64784
rclavicle 3.02153e-014 1.28812e-013
rhumerus 32.0217 53.1274 -89.9956
rradius 51.2093
rwrist -30.1455
rhand -35.5998 39.8548
rfingers 7.12502
rthumb -8.72361 10.0551
lclavicle 3.02153e-014 1.28812e-013
lhumerus 56.0292 -10.7365 44.7064
lradius 28.6776
lwrist -32.8126
lhand -2.89428 -4.90917
lfingers 7.12502
lthumb 22.8154 23.7615
rfemur -67.0914 8.61026 28.3849
rtibia 70.1955
rfoot -8.03297 -11.8515
rtoes -29.5649
lfemur 4.45063 -4.52349 -27.9215
ltibia 18.3349
lfoot 15.877 3.51723
ltoes 4.18996
39
root -4.93585 2.95838 0.228486 134.565 -3.42687 -91.5368
lowerback 34.4069 -1.73687 -3.51379
upperback 7.08227 -4.127 1.76916
thorax -9.28709 -2.28012 5.3745
lowerneck -19.0144 1.90406 -2.84353
upperneck 24.935 7.1583 -23.0846
head 12.5925 -0.619697 -7.49552
rclavicle 3.81667e-014 2.70347e-014
rhumerus 31.9575 53.1535 -90.0941
rradius 51.2711
rwrist -30.2053
rhand -35.629 39.6882
rfingers 7.12502
rthumb -8.75181 9.88963
lclavicle 3.81667e-014 2.70347e-014
lhumerus 55.9318 -10.6505 44.9742
lradius 28.7004
lwrist -33.1096
lhand -2.83879 -4.88445
lfingers 7.12502
lthumb 22.8687 23.7796
rfemur -67.0925 8.60275 28.3333
rtibia 70.2179
rfoot -8.0152 -11.8707
rtoes -29.9567
lfemur 4.42391 -4.52805 -27.9809
ltibia 18.3973
lfoot 15.9651 3.47637
ltoes 4.19271
40
root -4.93243 2.95807 0.227828 134.511 -3.42625 -91.5
lowerback 34.494 -1.78691 -3.52586
upperback 7.06588 -4.1904 1.79354
thorax -9.32949 -2.30623 5.43491
lowerneck -19.0884 1.87065 -3.03333
upperneck 25.0569 7.16209 -22.9154
head 12.6424 -0.632556 -7.40282
rclavicle 3.18055e-015 -9.62118e-014
rhumerus 31.8782 53.2911 -90.1836
rradius 51.2901
rwrist -30.1952
rhand -35.5724 39.4283
rfingers 7.12502
rthumb -8.69713 9.62743
lclavicle 3.18055e-015 -9.62118e-014
lhumerus 55.7243 -10.532 45.124
lradius 28.7706
lwrist -33.2669
lhand -2.79517 -4.83961
lfingers 7.12502
lthumb 22.9105 23.8193
rfemur -67.0589 8.56692 28.3733
rtibia 70.2299
rfoot -7.94567 -11.9319
rtoes -30.1262
lfemur 4.55413 -4.71573 -27.9654
ltibia 18.4122
lfoot 15.3494 3.5243
ltoes 4.82455
